<svg viewBox="0 0 1024 1024" class="icon" version="1.1" xmlns="http://www.w3.org/2000/svg" fill="#000000">
    <g id="SVGRepo_bgCarrier" stroke-width="0"></g>
    <g id="SVGRepo_tracerCarrier" stroke-linecap="round" stroke-linejoin="round"></g>
    <g id="SVGRepo_iconCarrier">
        <path d="M392 560a32 32 0 0 0-32-32c-1.28 0-1.68-1.04-0.8-1.92a32 32 0 0 0-45.28-45.28c-0.88 0.88-1.92 0.4-1.92-0.8a32 32 0 0 0-64 0c0 1.28-1.04 1.68-1.92 0.8a32 32 0 1 0-45.28 45.28c0.88 0.88 0.4 1.92-0.8 1.92a32 32 0 0 0 0 64c1.28 0 1.68 1.04 0.8 1.92a32 32 0 0 0 45.28 45.28c0.88-0.88 1.92-0.4 1.92 0.8a32 32 0 0 0 64 0c0-1.28 1.04-1.68 1.92-0.8a32 32 0 0 0 45.28-45.28c-0.88-0.88-0.4-1.92 0.8-1.92a32 32 0 0 0 32-32z" fill="#FFFFFF"></path>
        <path d="M483.04 705.6c145.76 76.88 376.72 112.4 460.96-2.48-156.48-58.64-328.96-37.6-460.96 2.48z" fill="#C0764A"></path>
        <path d="M744 599.44v-120a232 232 0 0 0-464 0v120l-200 104c0 96 190.8 85.2 320 32 136-56 352-104 544-32z" fill="#FFD53E"></path>
        <path d="M280 527.2h464v80H280z" fill="#CB525F"></path>
        <path d="M392 560a32 32 0 0 0-32-32c-1.28 0-1.68-1.04-0.8-1.92a32 32 0 0 0-45.28-45.28c-0.88 0.88-1.92 0.4-1.92-0.8a32 32 0 0 0-64 0c0 1.28-1.04 1.68-1.92 0.8a32 32 0 1 0-45.28 45.28c0.88 0.88 0.4 1.92-0.8 1.92a32 32 0 0 0 0 64c1.28 0 1.68 1.04 0.8 1.92a32 32 0 0 0 45.28 45.28c0.88-0.88 1.92-0.4 1.92 0.8a32 32 0 0 0 64 0c0-1.28 1.04-1.68 1.92-0.8a32 32 0 0 0 45.28-45.28c-0.88-0.88-0.4-1.92 0.8-1.92a32 32 0 0 0 32-32z" fill="#FFFFFF"></path>
        <path d="M280 560m-48 0a48 48 0 1 0 96 0 48 48 0 1 0-96 0Z" fill="#CB525F"></path>
        <path d="M280 560m-16 0a16 16 0 1 0 32 0 16 16 0 1 0-32 0Z" fill="#FFD53E"></path>
    </g>
</svg>